<?xml version="1.0" standalone="no"?>
<!DOCTYPE svg PUBLIC "-//W3C//DTD SVG 20010904//EN"
 "http://www.w3.org/TR/2001/REC-SVG-20010904/DTD/svg10.dtd">
<svg version="1.0" xmlns="http://www.w3.org/2000/svg"
 width="960.000000pt" height="960.000000pt" viewBox="0 0 960.000000 960.000000"
 preserveAspectRatio="xMidYMid meet">
<metadata>
Created by potrace 1.14, written by Peter Selinger 2001-2017
</metadata>
<g transform="translate(0.000000,960.000000) scale(0.100000,-0.100000)"
fill="#000000" stroke="none">
<path d="M4535 9594 c-514 -32 -1020 -143 -1490 -327 -78 -30 -163 -65 -190
-77 -69 -31 -388 -191 -400 -200 -5 -4 -55 -34 -109 -65 -89 -51 -333 -210
-346 -225 -3 -3 -21 -17 -40 -30 -210 -144 -588 -493 -787 -725 -79 -92 -208
-254 -243 -305 -13 -19 -27 -37 -30 -40 -13 -11 -219 -327 -240 -370 -12 -25
-31 -56 -40 -70 -19 -27 -160 -305 -208 -410 -159 -350 -310 -876 -361 -1255
-44 -328 -45 -349 -45 -695 0 -345 2 -375 45 -695 31 -232 95 -507 179 -770
427 -1344 1450 -2446 2765 -2982 380 -154 778 -258 1206 -313 571 -74 1184
-37 1759 105 536 133 1005 339 1485 653 523 342 1006 824 1351 1347 369 560
602 1137 723 1795 87 472 102 989 41 1460 -32 249 -45 316 -115 600 -98 399
-281 846 -498 1215 -605 1030 -1550 1789 -2686 2157 -449 145 -892 216 -1391
222 -151 2 -302 2 -335 0z m553 -354 c412 -29 754 -97 1138 -226 797 -266
1522 -776 2055 -1444 237 -297 452 -655 613 -1024 19 -42 30 -57 41 -52 8 3
15 1 15 -4 0 -6 -4 -10 -10 -10 -16 0 -12 -21 16 -91 81 -205 174 -539 218
-784 114 -634 94 -1276 -60 -1890 -168 -668 -500 -1306 -947 -1820 -544 -624
-1213 -1070 -1987 -1323 -887 -290 -1859 -292 -2745 -5 -395 128 -789 318
-1108 536 -192 131 -214 148 -412 311 -189 156 -442 418 -616 641 -408 523
-684 1100 -837 1755 -49 208 -78 403 -97 650 -30 378 -12 736 55 1131 38 224
158 648 235 832 4 9 3 17 -2 17 -5 0 -18 7 -29 15 -18 15 -17 16 12 10 31 -6
32 -5 65 72 240 548 545 999 954 1408 196 197 489 441 625 521 18 11 30 27 30
39 0 14 3 16 8 7 6 -9 24 -2 69 27 633 409 1338 643 2108 700 163 12 427 12
593 1z"/>
<path d="M4520 9200 c-596 -40 -1184 -201 -1705 -465 -99 -50 -198 -103 -220
-117 -22 -14 -83 -51 -135 -83 -52 -32 -97 -60 -99 -61 -2 -2 40 -59 94 -126
78 -99 85 -111 38 -62 -32 33 -80 86 -106 117 l-48 57 -62 -45 c-618 -440
-1082 -977 -1416 -1639 -48 -94 -101 -209 -119 -256 -18 -47 -42 -105 -52
-130 -210 -501 -324 -1209 -292 -1802 52 -932 358 -1760 922 -2489 398 -515
923 -947 1500 -1234 247 -123 424 -195 663 -269 455 -142 834 -198 1322 -198
280 0 453 14 695 53 1003 163 1896 650 2575 1405 50 54 106 119 125 144 19 24
47 58 61 75 44 51 133 176 217 301 304 458 525 989 636 1531 145 705 116 1440
-84 2128 -37 128 -133 402 -145 413 -5 6 -65 -13 -139 -43 -13 -6 -17 -4 -14
5 2 7 34 24 71 37 37 14 67 30 67 35 0 15 -57 141 -130 288 -581 1166 -1662
2022 -2932 2320 -159 38 -369 73 -556 94 -170 20 -558 28 -732 16z m985 -317
c-4 -35 -11 -63 -17 -63 -10 0 -8 41 10 150 7 45 7 45 10 10 2 -19 1 -63 -3
-97z m-1337 7 c16 -126 82 -563 85 -567 2 -1 52 4 113 12 60 8 157 17 217 21
l107 7 0 198 c0 126 4 199 10 199 6 0 10 -73 10 -200 l0 -200 145 0 c255 0
602 -47 855 -115 198 -54 445 -142 550 -195 22 -11 45 -20 52 -20 8 0 42 48
77 108 75 125 69 117 77 109 3 -3 -24 -56 -60 -118 -37 -61 -65 -113 -64 -114
2 -1 44 -23 93 -50 356 -188 600 -369 886 -654 214 -214 386 -435 543 -695 67
-111 167 -307 161 -316 -14 -22 -45 8 -79 78 -214 436 -536 831 -971 1191 -71
59 -159 114 -163 102 -5 -16 -194 -252 -216 -270 -42 -35 -6 19 87 129 56 67
108 130 115 140 11 15 7 22 -36 53 -27 19 -63 43 -78 52 -16 9 -58 34 -94 55
-78 48 -256 140 -269 140 -6 0 -38 -47 -73 -105 -34 -57 -64 -102 -67 -100 -2
3 22 50 53 106 31 56 55 107 53 113 -5 13 -166 83 -302 132 -214 76 -532 155
-545 134 -4 -6 -10 -57 -14 -113 -4 -56 -11 -138 -16 -182 -5 -44 -19 -168
-31 -275 -12 -107 -23 -197 -25 -199 -14 -16 -12 33 10 230 29 252 57 504 59
534 2 17 -10 21 -106 37 -141 22 -342 38 -489 38 l-118 0 -2 -152 -2 -153 -6
150 -5 150 -105 -3 c-99 -3 -318 -27 -327 -35 -2 -2 8 -89 22 -193 42 -318 34
-296 -32 84 -16 94 -19 102 -40 102 -51 0 -453 -96 -469 -112 -2 -3 5 -31 16
-63 11 -32 19 -60 17 -62 -2 -1 -16 24 -30 57 -15 33 -29 60 -31 60 -3 0 -44
-14 -93 -31 -319 -112 -696 -317 -967 -524 -18 -14 -15 -19 55 -100 81 -94
104 -125 96 -125 -3 0 -43 42 -88 93 -46 50 -88 93 -95 95 -20 5 -218 -172
-379 -337 l-50 -52 40 -34 c47 -40 29 -47 -22 -8 l-35 27 -16 -21 c-10 -12
-52 -64 -96 -116 -89 -107 -237 -318 -230 -328 2 -4 70 -46 152 -93 180 -105
178 -104 171 -111 -3 -3 -57 24 -120 61 -227 132 -220 128 -230 113 -25 -38
-122 -213 -155 -281 -35 -71 -65 -100 -79 -77 -7 10 81 185 155 308 27 46 49
85 48 87 -2 1 -54 32 -115 69 -62 37 -113 69 -113 71 0 5 119 -56 187 -96 l52
-31 51 77 c72 105 172 236 241 316 33 36 59 72 58 80 0 7 -62 64 -137 126
-134 110 -242 204 -212 185 39 -26 151 -112 200 -153 30 -26 81 -68 113 -94
l59 -48 146 144 c81 79 177 167 215 197 37 30 67 58 67 63 0 4 -72 92 -161
195 -192 223 -214 252 -205 260 3 3 7 4 9 2 5 -7 154 -182 262 -309 59 -69
111 -126 115 -128 4 -1 59 35 123 80 261 187 571 349 854 448 125 44 119 37
94 111 -31 93 -25 105 10 19 17 -41 32 -77 34 -79 2 -1 32 6 67 17 77 25 211
57 321 78 123 23 120 21 113 58 -16 75 -86 584 -86 621 0 48 18 -8 28 -85z
m2802 -362 c-66 -131 -169 -302 -177 -295 -3 3 39 83 92 177 54 94 99 169 102
166 2 -2 -5 -24 -17 -48z m-3827 -390 c68 -118 82 -150 48 -107 -37 48 -179
294 -174 302 6 9 34 -34 126 -195z m347 -558 c97 -159 113 -190 102 -190 -9 0
-144 223 -182 300 -37 74 -6 33 80 -110z m1222 -205 c2 -165 0 -327 -3 -360
-3 -33 -6 104 -7 304 -1 200 0 362 3 360 2 -3 5 -140 7 -304z m3283 266 c-52
-48 -219 -194 -300 -261 -49 -41 -96 -80 -103 -87 -7 -7 -19 -13 -25 -13 -14
1 15 28 188 175 134 114 246 204 255 205 2 0 -4 -8 -15 -19z m429 -578 c-39
-26 -415 -252 -444 -266 -17 -9 -38 -21 -93 -55 -20 -13 -43 -22 -49 -20 -16
6 -19 4 322 202 266 155 356 203 264 139z m-7218 -25 c41 -24 74 -47 74 -51 0
-8 -144 66 -164 84 -26 24 25 5 90 -33z m4564 -175 c-50 -139 -238 -622 -247
-632 -1 -2 -5 -2 -8 1 -6 5 21 77 176 469 75 193 108 269 114 269 2 0 -14 -48
-35 -107z m-2445 -108 c55 -65 116 -137 135 -160 19 -23 94 -112 166 -196 72
-85 134 -161 138 -169 15 -27 -101 101 -292 324 -103 120 -213 248 -244 284
-31 37 -54 71 -51 76 4 5 16 -2 27 -16 12 -14 66 -78 121 -143z m609 -69 c48
-86 86 -159 84 -162 -6 -6 -208 332 -208 348 1 24 34 -26 124 -186z m3046 90
c0 -8 -206 -191 -389 -346 -68 -58 -151 -129 -185 -157 -33 -29 -67 -53 -75
-53 -9 0 -11 3 -5 8 14 14 568 483 611 519 40 33 43 36 43 29z m-5980 -446
c18 -12 2 -12 -25 0 -13 6 -15 9 -5 9 8 0 22 -4 30 -9z m6170 -4 c0 -2 -7 -7
-16 -10 -8 -3 -12 -2 -9 4 6 10 25 14 25 6z m-5958 -65 c181 -62 432 -152 437
-157 15 -14 -14 -11 -60 5 -30 11 -162 59 -294 107 -132 47 -242 88 -244 90
-12 11 31 -1 161 -45z m5898 29 c-22 -17 -172 -108 -322 -195 -27 -15 -48 -23
-48 -18 0 5 26 24 58 43 31 19 90 53 129 77 40 24 75 43 77 43 3 0 31 16 63
35 65 39 81 44 43 15z m1189 -45 c-20 -19 -513 -199 -531 -193 -11 4 72 36
357 139 150 55 185 65 174 54z m-7320 -58 c105 -27 128 -36 145 -60 19 -26 20
-44 24 -547 4 -495 6 -522 24 -545 39 -49 139 -54 174 -8 11 15 13 118 14 521
0 327 4 510 10 523 14 25 44 24 188 -2 91 -17 121 -27 144 -48 l29 -26 6
-1131 6 -1130 -28 -22 c-25 -20 -38 -22 -164 -22 -147 1 -162 5 -181 54 -6 17
-10 175 -10 427 l0 401 -29 29 c-26 25 -37 29 -85 29 -44 0 -59 -4 -76 -22
-19 -21 -20 -33 -20 -444 0 -400 -1 -423 -19 -445 -19 -23 -24 -24 -170 -24
-131 0 -153 2 -168 18 -17 17 -18 82 -21 1239 -2 1084 -1 1224 13 1245 20 30
40 29 194 -10z m7627 -38 c41 -13 100 -70 119 -116 25 -59 37 -207 33 -415 -4
-246 -3 -245 -129 -270 -46 -10 -115 -19 -152 -20 -98 -4 -97 -6 -97 217 0
169 -1 183 -20 203 -24 26 -74 29 -124 8 -66 -27 -66 -30 -66 -341 l0 -282 25
-23 c23 -22 28 -22 112 -14 159 16 233 11 297 -20 67 -33 109 -84 134 -165 15
-49 17 -107 17 -491 0 -424 -1 -437 -23 -507 -29 -92 -90 -159 -177 -194 -57
-22 -72 -23 -285 -24 -214 0 -228 1 -285 24 -41 16 -76 40 -111 75 -76 78 -84
117 -84 404 0 235 5 274 39 287 14 6 214 24 267 25 12 0 32 -9 45 -19 24 -19
24 -22 21 -174 -5 -221 13 -267 101 -267 48 0 93 25 107 60 7 17 10 119 8 301
-3 256 -4 277 -22 295 -18 17 -35 19 -190 19 -166 0 -173 1 -221 27 -63 33
-98 70 -127 133 -23 49 -23 58 -26 430 -3 406 2 472 43 562 58 127 172 194
420 247 211 45 270 49 351 25z m-7389 -87 c4 -9 10 -125 13 -257 l5 -240 53
-9 c71 -13 68 -30 -4 -21 l-57 7 5 -261 c3 -144 1 -261 -4 -261 -4 0 -8 213
-8 473 -1 259 -5 492 -9 517 -5 25 -18 52 -30 61 -12 10 -21 22 -21 28 0 15
46 -15 57 -37z m1686 12 c71 -36 157 -89 157 -97 0 -10 -140 64 -179 94 -29
23 -20 24 22 3z m5864 -36 c51 -55 82 -164 83 -285 0 -29 4 -41 13 -39 35 11
98 16 92 7 -3 -6 -28 -13 -55 -17 l-50 -7 0 -164 c0 -237 -11 -254 -172 -279
-180 -28 -180 -28 -210 -4 -16 12 -28 28 -28 36 0 20 8 17 34 -12 l22 -27 120
17 c224 32 214 17 214 333 0 240 -12 335 -47 390 -9 15 -20 30 -23 33 -3 3
-11 13 -19 23 -20 25 2 21 26 -5z m-6962 -92 c14 -21 17 -152 22 -1082 3 -583
7 -1060 8 -1062 1 -1 23 6 48 17 28 12 49 16 52 10 4 -5 0 -11 -7 -14 -7 -3
-31 -11 -53 -18 l-40 -14 -5 -67 c-4 -59 -9 -71 -33 -92 -27 -23 -35 -24 -167
-24 -144 0 -177 7 -199 42 -19 31 -4 34 25 5 26 -27 29 -27 160 -27 146 0 181
9 191 49 3 13 4 526 0 1139 l-5 1114 -26 27 c-14 15 -26 30 -26 34 0 14 40
-13 55 -37z m5757 22 l21 -21 -6 -720 c-4 -396 -7 -893 -7 -1104 l0 -384 -25
-24 c-24 -25 -26 -25 -214 -25 -186 0 -190 0 -218 24 -21 18 -33 41 -41 78
-35 153 -99 453 -192 888 -51 235 -76 339 -84 347 -3 4 -10 2 -15 -3 -5 -5
-12 -299 -16 -653 -7 -609 -9 -645 -26 -662 -17 -17 -36 -19 -154 -19 -130 0
-137 1 -160 24 l-24 24 6 1029 c3 571 10 1036 15 1045 16 33 63 45 245 63 168
17 183 17 206 2 14 -9 28 -25 32 -36 3 -10 66 -261 140 -556 73 -296 138 -542
144 -548 27 -27 31 56 31 593 0 339 4 559 10 575 13 33 54 50 159 64 46 6 87
13 89 16 13 13 64 3 84 -17z m-5122 -43 c96 -13 201 -33 232 -44 109 -38 183
-104 222 -198 19 -47 20 -76 28 -978 4 -511 5 -942 2 -957 -10 -51 -34 -58
-189 -58 -204 0 -185 -43 -185 413 0 351 -1 374 -20 404 -35 59 -139 68 -180
16 -19 -25 -20 -40 -20 -409 0 -371 -1 -385 -20 -404 -18 -18 -33 -20 -165
-20 -127 0 -147 2 -163 18 -17 17 -19 49 -25 403 -4 211 -7 661 -7 1000 0 688
0 682 68 759 43 49 119 79 197 79 28 1 129 -10 225 -24z m5211 -16 l22 -22 -8
-957 -7 -957 61 -22 c77 -28 81 -47 4 -20 -31 10 -58 19 -60 19 -1 0 -3 -65
-3 -144 0 -139 -1 -146 -24 -173 l-24 -28 -167 -5 -167 -5 103 -58 c150 -84
175 -110 34 -36 -66 35 -147 77 -180 93 -69 33 -95 53 -95 74 0 9 12 3 35 -17
l36 -31 194 0 c182 0 195 1 213 20 18 19 19 53 25 637 4 339 7 839 7 1110 l0
494 -26 24 c-21 19 -23 25 -10 25 9 0 26 -10 37 -21z m-4126 -94 c352 -24 426
-44 509 -136 71 -79 70 -69 73 -597 4 -416 2 -481 -12 -530 -21 -70 -44 -104
-98 -141 -68 -47 -134 -61 -279 -61 -134 0 -178 -11 -192 -45 -3 -9 -6 -142
-6 -296 0 -266 -1 -280 -20 -299 -18 -18 -33 -20 -165 -20 -142 0 -147 1 -170
25 l-25 24 -2 733 c-5 1387 -6 1337 17 1355 15 11 35 13 75 9 30 -3 163 -12
295 -21z m3450 -5 c21 -23 227 -840 223 -885 -2 -16 -52 166 -112 410 -90 360
-113 443 -133 463 -12 12 -23 25 -23 27 0 13 29 3 45 -15z m-799 -4 c17 -13
19 -27 19 -118 0 -57 -3 -115 -7 -129 -10 -33 -41 -46 -133 -54 -98 -9 -131
-21 -143 -53 -6 -15 -12 -136 -15 -268 -5 -299 -1 -314 88 -314 39 0 86 -16
97 -33 4 -7 8 -62 8 -123 0 -137 -8 -151 -89 -161 -34 -4 -63 -14 -80 -29
l-26 -22 -3 -221 -3 -221 30 -30 c29 -29 32 -30 124 -30 136 0 141 -5 145
-149 4 -107 3 -111 -22 -136 l-25 -25 -293 0 c-233 1 -297 3 -311 14 -18 14
-18 58 -18 1028 l1 1013 24 21 c21 19 42 23 153 29 70 4 169 10 218 15 154 13
239 11 261 -4z m-1127 -47 c83 -15 136 -41 183 -91 66 -70 68 -84 68 -600 0
-466 -4 -521 -38 -578 -64 -105 -170 -150 -355 -150 -97 0 -162 -11 -181 -30
-7 -7 -13 -104 -16 -296 -6 -354 12 -324 -196 -324 -131 0 -146 2 -164 20 -20
20 -20 34 -21 998 -1 537 -1 984 0 992 4 40 13 59 29 63 38 10 628 7 691 -4z
m1221 -18 c15 -29 12 -262 -4 -283 -18 -25 -50 -34 -141 -43 -79 -7 -113 -17
-127 -39 -4 -6 -8 -118 -8 -248 0 -147 -4 -239 -10 -243 -7 -4 -10 80 -10 244
l0 249 29 25 c25 21 44 26 126 32 74 5 101 11 115 25 23 23 33 88 28 186 -3
66 -6 78 -28 95 -25 18 -25 19 -3 19 12 0 27 -9 33 -19z m-3338 -33 c36 -48
54 -87 66 -144 8 -34 12 -359 12 -985 l2 -934 -27 -22 c-25 -22 -35 -23 -174
-23 -135 0 -151 2 -175 21 -14 11 -26 27 -26 35 0 21 18 17 25 -5 8 -27 32
-31 187 -31 134 0 137 0 157 25 19 26 20 37 14 938 -2 502 -9 936 -14 966 -10
59 -43 132 -71 158 -10 9 -18 20 -18 25 0 17 19 7 42 -24z m5428 -19 c0 -5 -9
-9 -21 -9 -11 0 -34 -13 -50 -29 l-29 -29 0 -256 c0 -164 -4 -256 -10 -256
-13 0 -13 490 0 524 5 14 23 34 39 44 32 20 71 26 71 11z m-7673 -45 c-3 -3
-12 -4 -19 -1 -8 3 -5 6 6 6 11 1 17 -2 13 -5z m3442 -29 c18 -20 39 -64 51
-103 20 -65 21 -87 18 -548 l-3 -479 -28 -57 c-33 -68 -81 -110 -157 -140 -44
-17 -86 -22 -213 -27 -141 -5 -160 -8 -173 -25 -11 -16 -14 -73 -14 -292 0
-179 -4 -281 -11 -297 -18 -40 -50 -47 -203 -47 -130 0 -146 2 -170 21 -14 11
-26 27 -26 35 0 19 5 18 34 -11 24 -24 29 -25 171 -25 132 0 147 2 165 20 19
19 20 33 20 295 0 183 4 282 11 299 17 36 57 46 194 46 162 0 236 21 305 88
80 78 80 80 80 616 0 505 -3 537 -58 605 -38 48 -45 61 -34 61 6 0 24 -16 41
-35z m-3392 19 c-3 -3 -12 -4 -19 -1 -8 3 -5 6 6 6 11 1 17 -2 13 -5z m4590
-32 c61 -82 58 -54 61 -576 3 -524 1 -556 -51 -633 -66 -99 -180 -143 -367
-143 -124 0 -164 -14 -174 -60 -3 -18 -6 -149 -6 -291 l0 -258 -26 -20 c-24
-19 -40 -21 -171 -21 -163 0 -202 11 -203 59 0 8 10 4 25 -13 24 -26 25 -26
173 -26 139 0 150 1 168 21 18 19 19 42 22 299 l3 277 25 24 c22 21 36 23 172
30 177 8 234 24 302 86 87 78 85 64 85 638 l0 500 -24 48 c-14 26 -33 55 -43
64 -10 9 -18 20 -18 24 0 15 27 -2 47 -29z m3448 -651 c61 -91 67 -126 73
-389 l5 -242 26 -7 c14 -4 53 -12 86 -19 l60 -13 -60 5 c-33 3 -72 7 -87 10
l-28 6 0 -144 c0 -309 -39 -427 -164 -498 l-50 -29 27 -10 c15 -6 39 -16 53
-21 53 -21 15 -21 -46 0 -53 18 -69 19 -118 10 -73 -13 -352 -13 -428 1 -64
12 -146 48 -181 81 -35 32 -27 44 10 16 52 -40 108 -65 172 -77 77 -14 369
-14 437 0 153 33 234 124 258 292 8 58 10 209 8 483 -4 388 -4 401 -27 457
-12 31 -33 70 -47 86 -26 31 -29 41 -14 41 5 0 21 -17 35 -39z m-8037 -28
c-10 -2 -28 -2 -40 0 -13 2 -5 4 17 4 22 1 32 -1 23 -4z m5416 -134 c26 -20
26 -22 26 -145 0 -117 -1 -126 -23 -148 -15 -15 -41 -26 -73 -30 -103 -15
-104 -17 -104 -262 0 -125 -3 -184 -11 -184 -7 0 -9 64 -7 206 l3 206 26 22
c17 15 46 25 79 29 84 10 90 20 90 158 0 113 -1 118 -25 137 -14 11 -25 23
-25 26 0 12 18 6 44 -15z m697 -585 c-2 -577 -3 -584 -53 -598 -13 -3 -83 -6
-156 -6 -128 0 -134 1 -157 25 -22 21 -33 45 -20 45 2 0 15 -11 29 -25 24 -24
29 -25 161 -25 188 0 175 -19 175 263 0 288 12 868 18 863 2 -3 3 -246 3 -542z
m1115 508 c75 -54 122 -65 265 -60 71 2 129 1 129 -3 0 -12 -167 -22 -239 -15
-73 7 -154 41 -191 81 -31 33 -13 32 36 -3z m-6631 -162 c-4 -6 -10 -8 -15 -5
-6 4 -60 -10 -72 -18 -1 -1 -5 -198 -8 -438 -5 -419 -6 -438 -25 -460 l-20
-22 20 7 c61 24 107 38 111 34 2 -3 -33 -20 -78 -38 -142 -56 -238 -88 -238
-80 0 7 66 36 130 57 16 5 -24 10 -117 13 -139 5 -143 6 -170 32 -15 15 -23
31 -19 35 4 4 13 1 19 -8 24 -32 55 -39 185 -39 113 0 133 2 153 19 l24 19 3
430 c3 414 3 430 23 450 14 16 32 22 60 22 25 0 38 -4 34 -10z m1185 -70 c11
-7 8 -10 -16 -10 -17 0 -43 -9 -58 -21 l-26 -20 0 -390 c0 -483 20 -443 -225
-437 -136 3 -137 3 -161 32 -14 15 -22 31 -19 35 4 3 16 -5 27 -19 20 -24 24
-25 165 -28 118 -3 149 -1 168 12 l24 16 3 394 c3 367 4 395 22 414 16 18 34
26 71 30 6 1 17 -3 25 -8z m5710 -50 c19 -19 20 -32 18 -192 l-2 -173 -5 168
-6 169 -30 24 c-23 18 -26 24 -12 24 9 0 26 -9 37 -20z m130 -40 c0 -5 -2 -10
-4 -10 -3 0 -8 5 -11 10 -3 6 -1 10 4 10 6 0 11 -4 11 -10z m-7053 -96 c-3 -3
-12 -4 -19 -1 -8 3 -5 6 6 6 11 1 17 -2 13 -5z m-572 -94 c-11 -5 -27 -9 -35
-9 -9 0 -8 4 5 9 11 5 27 9 35 9 9 0 8 -4 -5 -9z m5524 -286 c18 -24 21 -41
21 -141 0 -113 0 -115 -29 -144 l-29 -29 -302 0 -301 0 -24 25 c-26 25 -32 45
-16 45 5 0 12 -9 16 -19 3 -10 16 -22 28 -25 32 -8 590 -7 603 2 25 16 34 56
34 146 0 97 -12 146 -37 146 -7 0 -13 5 -13 10 0 19 29 10 49 -16z m-3759
-322 c0 -5 -22 -21 -50 -36 -27 -15 -50 -23 -50 -18 0 5 21 21 48 35 54 30 52
30 52 19z m4508 -199 c130 -80 162 -112 44 -45 -153 87 -312 185 -312 193 0 9
98 -45 268 -148z m-3293 -70 c-115 -135 -136 -160 -262 -309 -194 -229 -216
-254 -245 -288 -14 -17 -29 -28 -33 -24 -4 3 42 64 102 134 59 70 121 143 138
163 29 36 126 145 260 296 39 43 74 84 78 92 5 8 11 12 14 9 3 -3 -21 -36 -52
-73z m1881 14 c227 -342 413 -637 389 -617 -16 13 -164 235 -309 462 -33 51
-77 119 -98 151 -40 61 -43 67 -30 67 4 0 26 -28 48 -63z m866 -39 c107 -91
188 -161 415 -359 34 -30 62 -58 62 -62 1 -9 -61 37 -124 92 -23 20 -67 59
-100 86 -58 49 -225 194 -235 205 -3 3 -34 29 -70 59 -94 79 -96 81 -81 81 7
0 67 -46 133 -102z m-4402 17 c0 -2 -10 -10 -22 -16 -21 -11 -22 -11 -9 4 13
16 31 23 31 12z m795 -27 c-22 -18 -87 -73 -145 -123 -58 -50 -143 -122 -190
-162 -47 -39 -94 -80 -105 -90 -43 -39 -131 -110 -145 -117 -16 -8 40 47 105
103 22 19 60 53 85 75 25 23 72 64 105 91 32 28 63 55 69 60 65 63 230 195
243 195 12 0 4 -11 -22 -32z m-1200 -68 c25 -49 49 -90 55 -90 5 0 32 14 60
30 28 17 53 30 56 30 3 0 38 19 77 43 83 50 127 69 87 38 -14 -11 -47 -32 -75
-47 -89 -48 -195 -116 -195 -125 0 -5 11 -26 23 -47 13 -20 43 -68 66 -107 23
-38 63 -100 89 -136 26 -36 62 -88 81 -115 19 -27 37 -51 41 -54 3 -3 35 -41
70 -85 84 -104 363 -384 465 -465 44 -36 82 -67 85 -70 3 -3 57 -42 120 -86
189 -133 293 -196 459 -279 975 -487 2113 -498 3099 -30 523 249 1002 652
1344 1130 116 163 205 309 287 473 31 61 46 82 61 82 25 0 25 -11 0 -52 -11
-18 -20 -40 -20 -48 0 -9 61 -50 153 -103 85 -48 162 -94 173 -103 31 -24
-101 43 -224 113 -63 37 -117 62 -121 57 -5 -5 -25 -40 -46 -79 -111 -209
-284 -457 -445 -640 -45 -52 -283 -290 -335 -335 -357 -314 -818 -574 -1265
-713 -337 -105 -618 -152 -985 -164 -841 -26 -1652 245 -2320 777 -158 125
-429 395 -548 545 -96 120 -239 328 -306 443 -23 39 -44 72 -47 72 -3 0 -41
-21 -85 -47 -207 -123 -199 -119 -199 -104 0 8 73 53 235 146 19 11 35 24 35
29 0 5 -20 49 -45 97 -25 48 -45 93 -45 98 0 6 9 11 20 11 15 0 31 -22 65 -90z
m1156 -11 c-44 -39 -61 -47 -61 -29 0 6 3 10 8 10 4 0 25 15 47 34 22 19 42
32 45 29 3 -3 -15 -23 -39 -44z m1899 -439 l-6 -275 0 360 c0 198 2 322 5 275
3 -47 4 -209 1 -360z m-793 363 c-2 -5 -42 -75 -87 -158 -87 -156 -114 -198
-123 -189 -9 9 195 354 209 354 3 0 3 -3 1 -7z m2554 -197 c11 -17 -9 0 -45
39 -36 38 -66 74 -66 80 1 12 82 -74 111 -119z m-1147 -121 c10 -93 24 -228
32 -300 16 -147 27 -315 19 -300 -6 12 -85 722 -85 762 0 16 4 23 9 18 4 -6
16 -86 25 -180z m-927 -127 c-3 -8 -6 -5 -6 6 -1 11 2 17 5 13 3 -3 4 -12 1
-19z m-443 -134 c-45 -125 -64 -164 -64 -134 0 16 58 178 87 244 36 82 22 12
-23 -110z m433 69 c-3 -10 -5 -4 -5 12 0 17 2 24 5 18 2 -7 2 -21 0 -30z m-15
-118 c-6 -27 -16 -93 -22 -145 -6 -52 -18 -133 -25 -180 -8 -47 -33 -213 -55
-370 -23 -157 -44 -287 -46 -289 -10 -10 -11 8 -3 64 5 33 22 164 39 290 17
127 37 268 45 315 21 121 65 390 66 403 1 7 4 1 6 -13 3 -14 0 -47 -5 -75z
m-1028 -154 c-40 -68 -60 -87 -43 -44 15 41 72 128 76 116 2 -6 -13 -38 -33
-72z m3780 -39 c20 -24 36 -49 36 -55 -1 -12 -73 64 -91 96 -18 32 14 7 55
-41z m-3234 -77 c0 -8 -110 -311 -134 -370 -41 -98 -29 -48 24 106 28 79 60
172 72 207 12 34 26 62 30 62 4 0 8 -2 8 -5z m2078 -224 c23 -57 27 -81 14
-81 -7 0 -52 125 -52 145 0 18 17 -11 38 -64z m-3891 17 c52 -50 40 -118 -22
-130 -15 -2 -19 -12 -21 -42 -2 -81 -81 -101 -152 -40 -23 19 -42 40 -42 45 0
13 181 199 194 199 5 0 25 -14 43 -32z m5515 -115 l88 -87 39 38 c56 55 66 27
10 -30 -24 -24 -47 -44 -51 -44 -9 0 -191 186 -196 201 -2 5 2 9 9 9 8 0 53
-39 101 -87z m-2143 -106 c23 -116 26 -157 13 -142 -5 6 -17 60 -26 120 -10
61 -19 121 -22 135 -3 19 -2 21 5 10 5 -8 19 -64 30 -123z m-3035 -71 c31 -25
57 -48 57 -53 1 -18 -21 -11 -64 22 -25 19 -50 35 -55 35 -4 0 -19 -14 -32
-32 l-23 -32 33 -25 c71 -54 75 -59 65 -70 -7 -7 -27 3 -63 31 l-53 42 -25
-30 c-47 -56 -47 -58 7 -98 27 -21 49 -42 49 -46 0 -23 -22 -14 -79 31 -55 45
-61 53 -49 67 8 10 47 59 87 110 40 50 76 92 80 92 4 0 33 -20 65 -44z m4872
-63 c38 -48 74 -93 80 -102 10 -12 17 -10 50 17 38 31 64 41 64 23 0 -5 -23
-28 -51 -52 l-52 -43 -26 31 c-101 118 -152 186 -147 199 3 8 7 14 9 14 2 0
35 -39 73 -87z m-222 -199 c50 -75 74 -120 68 -126 -11 -11 -175 220 -166 234
11 18 24 4 98 -108z m-4319 34 c36 -23 65 -47 65 -55 0 -19 -10 -16 -60 17
-25 16 -52 30 -60 30 -13 0 -56 -59 -48 -65 2 -1 26 -17 53 -35 28 -18 52 -34
54 -36 1 -1 0 -8 -4 -14 -7 -11 -29 -1 -98 44 -25 17 -25 17 -51 -27 -14 -24
-26 -46 -26 -49 0 -3 23 -20 50 -38 28 -18 50 -38 50 -46 0 -8 -2 -14 -4 -14
-12 0 -129 75 -133 86 -2 7 18 47 46 91 28 43 60 95 71 116 11 20 23 37 25 37
3 0 35 -19 70 -42z m4015 -108 c26 -14 42 -67 28 -93 -6 -12 -18 -27 -27 -34
-21 -15 -10 -25 59 -54 67 -28 68 -28 51 -39 -13 -7 -121 30 -145 51 -5 4 -14
5 -22 2 -10 -4 -6 -18 18 -60 20 -36 27 -58 21 -64 -12 -12 -41 34 -132 205
l-21 40 53 27 c56 30 87 35 117 19z m-3679 -80 c79 -41 101 -91 60 -141 -15
-19 -27 -23 -63 -22 l-45 2 14 -71 c7 -39 11 -74 8 -76 -12 -13 -26 19 -41 96
-9 45 -21 82 -26 82 -4 0 -20 -25 -33 -55 -14 -30 -32 -55 -40 -55 -8 0 -15 2
-15 4 0 15 123 256 131 256 5 0 28 -9 50 -20z m3289 -120 c26 -16 0 -25 -65
-22 -60 4 -64 2 -97 -31 -59 -59 -56 -136 7 -185 33 -26 102 -29 144 -7 31 15
66 78 57 101 -5 13 -10 12 -42 -1 -45 -18 -54 -19 -54 -2 0 12 80 47 108 47
17 0 16 -84 -3 -120 -32 -62 -142 -89 -215 -52 -48 23 -83 93 -75 146 7 47 37
91 79 117 33 20 129 26 156 9z m-2609 -142 c70 -20 93 -69 55 -115 -21 -25
-22 -31 -10 -48 35 -48 -5 -126 -63 -124 -39 1 -108 24 -107 35 9 54 69 264
77 264 5 0 27 -5 48 -12z m482 -145 c57 -180 78 -255 73 -260 -10 -11 -25 9
-41 56 -14 44 -19 49 -53 55 -75 12 -88 8 -117 -34 -15 -22 -34 -40 -41 -40
-8 0 -14 2 -14 5 0 7 171 265 175 265 2 0 10 -21 18 -47z m1239 30 c22 -20 23
-35 2 -76 -17 -31 -17 -31 17 -59 34 -28 59 -36 59 -18 0 6 7 10 15 10 17 0
20 -21 4 -37 -7 -7 -1 -16 23 -31 30 -20 31 -22 10 -22 -13 0 -32 5 -43 10
-15 9 -26 6 -53 -15 -48 -37 -98 -43 -125 -16 -27 27 -27 62 1 110 l22 38 -22
28 c-27 34 -28 49 -2 75 24 24 67 26 92 3z m-749 -34 c30 -16 37 -28 37 -71 0
-41 -27 -68 -67 -68 -13 0 -23 -3 -23 -7 0 -5 21 -35 45 -68 37 -49 42 -61 28
-64 -9 -2 -21 4 -27 12 -68 96 -92 125 -98 119 -4 -4 -8 -34 -10 -66 -2 -36
-8 -61 -15 -64 -10 -3 -13 27 -13 126 0 72 3 137 6 146 7 19 103 22 137 5z"/>
<path d="M2356 5579 l-27 -21 3 -310 3 -310 28 -24 c22 -18 40 -24 78 -24 62
0 84 11 97 49 14 40 5 577 -10 608 -12 25 -74 53 -117 53 -16 0 -40 -9 -55
-21z m159 -59 c4 -6 -7 -10 -26 -10 -18 0 -41 -7 -51 -17 -17 -15 -18 -38 -18
-300 0 -182 -4 -283 -10 -283 -14 0 -14 555 1 581 17 32 90 52 104 29z"/>
<path d="M3577 5490 c-60 -18 -57 0 -57 -404 1 -276 4 -375 13 -387 33 -44
126 -54 171 -18 l26 20 0 368 c0 409 1 401 -68 421 -42 11 -47 11 -85 0z m130
-75 c2 -6 -11 -11 -31 -11 -68 0 -66 11 -66 -370 0 -218 -4 -345 -10 -349 -11
-7 -15 671 -4 700 13 33 102 57 111 30z"/>
<path d="M4736 5439 l-26 -20 0 -359 c0 -197 3 -366 6 -375 9 -21 56 -45 92
-45 42 0 91 19 102 40 6 11 10 163 10 379 0 358 0 360 -22 381 -31 29 -125 28
-162 -1z m164 -59 c0 -6 -6 -10 -12 -9 -32 4 -58 -2 -72 -17 -14 -13 -16 -59
-16 -349 0 -212 -4 -336 -10 -340 -7 -4 -10 110 -10 335 l0 341 25 24 c25 26
95 36 95 15z"/>
<path d="M2000 1993 c-26 -30 -19 -52 23 -67 49 -18 79 41 39 77 -25 23 -35
21 -62 -10z"/>
<path d="M1910 1899 c-16 -18 -30 -35 -30 -40 0 -13 57 -49 78 -49 50 0 64 59
25 103 -23 24 -39 21 -73 -14z"/>
<path d="M6662 1360 l-33 -21 22 -37 c12 -20 24 -39 25 -41 2 -1 21 7 43 20
32 17 41 29 41 49 0 52 -41 64 -98 30z"/>
<path d="M3016 1264 c-19 -41 -16 -47 36 -68 34 -14 38 -14 59 3 31 25 20 62
-26 84 -48 23 -49 22 -69 -19z"/>
<path d="M3719 1013 c-16 -43 -8 -68 24 -71 63 -7 79 61 19 85 -31 13 -33 12
-43 -14z"/>
<path d="M3682 875 c-17 -63 -16 -63 24 -71 51 -9 84 8 84 45 0 30 -26 55 -72
66 -21 5 -25 1 -36 -40z"/>
<path d="M4182 844 c-13 -20 -22 -37 -20 -39 2 -1 22 -6 44 -10 l42 -6 -11 45
c-6 25 -15 46 -21 46 -6 0 -21 -16 -34 -36z"/>
<path d="M5404 915 c-4 -10 2 -25 15 -38 22 -22 22 -22 37 -2 21 28 13 49 -19
53 -18 2 -29 -2 -33 -13z"/>
<path d="M5416 785 c-45 -69 14 -114 79 -60 l30 25 -35 30 c-43 36 -53 37 -74
5z"/>
<path d="M4620 846 c0 -42 2 -44 34 -50 67 -13 111 28 79 73 -11 16 -25 21
-64 21 l-49 0 0 -44z"/>
</g>
</svg>
